<?xml version="1.0" encoding="UTF-8"?>
<svg id="Layer_4" data-name="Layer 4" xmlns="http://www.w3.org/2000/svg" viewBox="0 0 367.4 406.75">
  <defs>
    <style>
      .cls-1 {
        fill: #fff;
      }
    </style>
  </defs>
  <path id="Path_53" data-name="Path 53" class="cls-1" d="M36.96,55.54h0C16.55,55.54,0,72.09,0,92.5c0,20.41,16.55,36.96,36.96,36.96,20.41,0,36.96-16.55,36.96-36.96,0-20.41-16.55-36.96-36.96-36.96"/>
  <path id="Path_54" data-name="Path 54" class="cls-1" d="M36.96,277.34h0c-20.41,0-36.96,16.55-36.96,36.96h0c.06,20.41,16.66,36.91,37.07,36.85,20.33-.06,36.79-16.52,36.85-36.85h0c0-20.41-16.55-36.96-36.96-36.96"/>
  <path id="Path_55" data-name="Path 55" class="cls-1" d="M330.46,129.46h36.94V55.54h-73.92v36.88c0,20.42-16.56,36.98-36.98,36.98h-.01c-20.42,0-36.98-16.55-36.98-36.98h0V0h-73.96v129.4c-40.78.08-73.81,33.16-73.81,73.96s33.03,73.87,73.81,73.96v129.44h73.96v-92.46c0-20.42,16.56-36.98,36.98-36.98h.02c20.42,0,36.98,16.56,36.98,36.98v36.66h73.92v-73.92h-36.94c-20.42,0-36.98-16.56-36.98-36.98h0v-73.61c0-20.42,16.55-36.98,36.98-36.98h0"/>
</svg>